<svg width="144" height="50" viewBox="0 0 144 50" fill="none" xmlns="http://www.w3.org/2000/svg">
<path d="M138.574 27.0348H96.9729C96.0032 11.9186 83.1058 0 67.2992 0C51.3956 0 38.4982 11.9186 37.5285 27.0348H4.46075C1.64854 27.0348 0 28.8759 0 31.1045V45.2518C0 47.5773 1.64854 49.4184 4.46075 49.4184H138.574C141.386 49.4184 143.035 47.5773 143.035 45.3487V31.1045C143.132 28.8759 141.483 27.0348 138.574 27.0348Z" fill="#DD052B"/>
<path d="M26.8618 32.1689H25.8921C23.7587 36.2387 21.7223 40.4054 19.5889 44.572C19.5889 44.6689 21.7223 44.6689 22.692 42.7309C22.789 42.5371 22.8859 42.3433 22.9829 42.1495C23.4678 41.4712 24.3405 41.5681 24.8254 41.5681H26.7649H30.4498C30.6438 41.9557 30.8377 42.3433 31.0317 42.7309C32.0014 44.6689 34.1348 44.6689 34.1348 44.572L27.8316 32.1689H26.8618ZM29.5771 39.7271H26.7649H24.7284C24.3405 39.7271 24.1466 39.824 23.9526 40.0178C24.0496 39.7271 24.2436 39.5333 24.3405 39.3395C25.1163 37.6922 25.9891 36.1418 26.7649 34.4945C26.7649 34.4945 26.7649 34.3976 26.8618 34.3007C27.7346 35.948 28.5104 37.5953 29.3831 39.3395C29.4801 39.4364 29.5771 39.6302 29.5771 39.7271Z" fill="black"/>
<path d="M37.0443 35.9473V35.8504C37.0443 34.5908 38.111 34.2032 39.3716 34.2032H44.8991C46.7416 34.0094 47.0325 32.9435 46.9355 32.459H43.4445H38.6928C35.3957 32.459 33.9411 36.5287 36.3655 38.4667C37.4322 39.3388 38.4989 39.3388 39.5656 39.3388C40.8262 39.3388 43.4445 39.145 44.4142 39.7264C44.8991 40.0171 45.093 40.4047 45.093 41.083C45.093 42.3427 44.0263 42.7303 42.7657 42.7303H37.2382C35.3957 42.9241 35.1048 43.99 35.2018 44.4744H38.6928H41.505H43.5415C48.1962 44.4744 48.1962 37.4977 43.5415 37.4977H39.4686C38.4989 37.4977 37.7231 37.3039 37.3352 36.7225C37.3352 36.7225 37.3352 36.7225 37.3352 36.6256V36.5287V35.9473H37.0443Z" fill="black"/>
<path d="M73.1188 39.4369C74.9613 39.34 76.5128 37.7896 76.5128 35.9485V35.8516C76.5128 33.9137 74.9613 32.3633 73.0218 32.3633H70.5975H64.6821V39.34V44.5725C64.6821 44.5725 66.7186 44.6694 66.7186 42.7315V40.2121C66.7186 39.34 67.7853 39.4369 68.3671 39.4369H70.5975H70.6945C72.6339 41.8594 73.9915 43.9911 76.6098 46.2198C78.0644 47.964 80.7796 47.6733 80.7796 47.5764C77.4826 44.8632 75.5431 42.3439 73.1188 39.4369ZM70.5975 37.5958H67.3974C67.0095 37.5958 66.8155 37.6927 66.7186 37.8865V37.4989V34.2044H70.5975H72.149C73.4097 34.2044 74.4764 34.592 74.4764 35.8516C74.4764 37.1113 73.4097 37.5958 72.149 37.5958H70.5975Z" fill="black"/>
<path d="M11.9279 32.1692H10.9582C8.92179 36.3358 6.88536 40.4056 4.75195 44.5722C4.75195 44.5722 6.78838 44.6691 7.85509 42.6342C7.95206 42.4404 8.04903 42.2467 8.146 42.0529C8.63087 41.3746 9.50363 41.4715 9.98849 41.4715H11.9279H15.6129C15.8069 41.8591 16.0008 42.2467 16.1948 42.6342C17.1645 44.5722 19.2979 44.5722 19.2979 44.4753L13.0916 32.0723H11.9279V32.1692ZM14.7402 39.7273H11.9279H9.89152C9.6006 39.7273 9.30968 39.8242 9.11573 40.018C9.21271 39.7273 9.40665 39.5335 9.50363 39.3397C10.2794 37.6924 11.1522 36.142 11.9279 34.4947C11.9279 34.4947 12.0249 34.3978 12.0249 34.3009C12.8977 35.9482 13.6735 37.5955 14.5462 39.3397C14.6432 39.4366 14.6432 39.6304 14.7402 39.7273Z" fill="black"/>
<path d="M56.826 34.2043V36.8206C56.826 37.3051 56.4381 37.4989 56.0502 37.5958H50.7167C50.4258 37.5958 50.1349 37.6927 50.0379 37.8865V37.4989V36.3361V34.2043C50.0379 32.2664 48.0984 32.2664 48.0015 32.3633V35.0764V37.5958V39.34V41.8594V44.5725C48.0015 44.6694 50.0379 44.6694 50.0379 42.7314V40.2121C50.0379 39.34 51.1046 39.4369 51.6864 39.4369H54.6926H56.0502C56.3411 39.4369 56.6321 39.34 56.729 39.0493V39.4369V40.5997V42.6345C56.729 44.5725 58.6685 44.5725 58.7655 44.4756V41.7624V39.2431V37.4989V34.9795V32.2664C58.8624 32.2664 56.826 32.1695 56.826 34.2043Z" fill="black"/>
<path d="M94.2593 32.1689H93.2896C91.1562 36.2387 89.1197 40.4054 86.9863 44.572C86.9863 44.6689 89.0228 44.6689 90.0895 42.7309C90.1864 42.5371 90.2834 42.3433 90.3804 42.1495C90.8652 41.4712 91.738 41.5681 92.2229 41.5681H94.1623H97.8473C98.0412 41.9557 98.2352 42.3433 98.4291 42.7309C99.3989 44.6689 101.532 44.6689 101.532 44.572L95.229 32.1689H94.2593ZM97.0715 39.7271H94.2593H92.2229C91.9319 39.7271 91.641 39.824 91.4471 40.0178C91.5441 39.7271 91.738 39.5333 91.835 39.3395C92.7077 37.6922 93.4835 36.1418 94.2593 34.4945C94.2593 34.4945 94.2593 34.3976 94.3563 34.3007C95.229 35.948 96.0048 37.5953 96.8776 39.3395C96.8776 39.4364 96.9745 39.6302 97.0715 39.7271Z" fill="black"/>
<path d="M60.7056 32.3633C60.7056 34.6889 60.7056 37.0144 60.7056 39.4369V42.7315C60.7056 44.6694 62.645 44.6694 62.742 44.5725V32.3633H60.7056Z" fill="black"/>
<path d="M87.955 34.107C86.5004 36.9171 85.1428 39.6302 83.7852 42.4403C81.5548 37.8861 80.973 36.9171 79.6153 34.107C78.6456 32.169 76.5122 32.169 76.5122 32.2659C78.6456 36.3357 80.682 40.5023 82.7185 44.669H84.7549L91.0581 32.2659C91.0581 32.169 88.9247 32.0721 87.955 34.107Z" fill="black"/>
<path d="M125.483 32.3633H124.223H117.628V39.34V44.5725H124.223H125.58C132.271 44.5725 132.077 32.5571 125.483 32.3633ZM124.901 42.9253H124.223H119.956V34.2044H124.223H124.901C129.556 33.7199 129.944 43.1191 124.901 42.9253Z" fill="black"/>
<path d="M109.483 32.1689H108.514C106.38 36.2387 104.344 40.4054 102.21 44.572C102.21 44.6689 104.247 44.6689 105.314 42.7309C105.411 42.5371 105.508 42.3433 105.605 42.1495C106.089 41.4712 106.962 41.5681 107.447 41.5681H109.386H113.071C113.265 41.9557 113.459 42.3433 113.653 42.7309C114.623 44.6689 116.756 44.6689 116.756 44.572L110.55 32.1689H109.483ZM112.296 39.7271H109.483H107.447C107.156 39.7271 106.865 39.824 106.671 40.0178C106.768 39.7271 106.962 39.5333 107.059 39.3395C107.835 37.6922 108.708 36.1418 109.483 34.4945C109.483 34.4945 109.58 34.3976 109.58 34.3007C110.453 35.948 111.229 37.5953 112.102 39.3395C112.102 39.4364 112.199 39.6302 112.296 39.7271Z" fill="black"/>
<path d="M85.1416 29.5536H91.3479C91.3479 19.0885 84.6567 10.1738 75.3473 6.87926C72.826 6.00717 70.1108 5.42578 67.2986 5.42578C63.2257 5.42578 59.3468 6.49167 55.9528 8.23585C48.2919 12.3056 43.1523 20.3482 43.1523 29.5536H48.8737H58.571H74.4746H85.1416Z" fill="white"/>
<path d="M85.1416 29.5536H91.3479C91.3479 19.0885 84.6567 10.1738 75.3473 6.87926C72.826 6.00717 70.1108 5.42578 67.2986 5.42578C63.2257 5.42578 59.3468 6.49167 55.9528 8.23585C48.2919 12.3056 43.1523 20.3482 43.1523 29.5536H48.8737C48.3889 29.0691 47.807 28.0032 47.6131 27.0342C49.7465 28.3908 51.492 29.166 54.4012 27.9063C54.8861 27.6156 55.4679 27.4218 55.9528 27.3249C56.7285 27.228 57.5043 27.228 58.3771 27.6156C59.8317 28.197 60.8014 28.9722 61.1893 29.2629C61.1893 29.2629 60.1226 28.8753 58.571 29.5536H74.4746C74.7655 29.2629 75.0564 28.9722 75.3473 28.6815C76.2201 27.9063 77.2868 27.3249 78.6444 27.3249C79.5172 27.3249 80.3899 27.6156 81.1657 27.8094C82.4264 28.1001 83.59 28.1001 85.1416 28.0032C86.4023 27.9063 87.0811 27.7125 87.5659 27.5187C86.3053 28.9722 85.6265 29.2629 85.1416 29.5536ZM57.1164 25.4838C56.7285 25.4838 56.3407 25.387 55.9528 25.387C53.2375 24.9025 51.395 23.2552 51.2981 20.8327C51.2011 19.1854 51.589 18.1195 49.8435 17.1505C50.5223 17.2474 51.2981 17.2474 52.0738 17.5381C53.8194 18.2164 53.7224 19.573 54.6921 20.9296C54.983 21.3172 55.3709 21.6079 55.9528 21.8986C56.5346 22.1893 57.2134 22.3831 57.9892 22.5769C59.6377 22.8676 61.6742 24.1273 62.0621 27.4218C60.6075 25.8714 58.668 25.5807 57.1164 25.4838ZM61.4802 22.5769C58.765 20.8327 58.0862 20.4451 57.8922 17.0536C57.7952 15.1157 57.3104 13.3715 55.8558 12.1118C55.6618 11.918 55.4679 11.8211 55.274 11.7242C55.4679 11.7242 55.6618 11.8211 55.8558 11.8211C64.4864 13.3715 61.1893 18.1195 62.7409 21.9955C63.0318 22.5769 63.2257 23.8366 63.6136 24.5149C62.9348 23.5459 62.256 23.0614 61.4802 22.5769ZM70.7896 24.5149C70.3048 18.9916 72.7291 17.5381 75.2504 16.1816C76.8989 15.3095 78.6444 14.4374 79.5172 12.5963C80.6809 18.2164 77.9656 19.8637 75.2504 21.1234C73.4079 21.8986 71.5654 22.6738 70.7896 24.5149ZM75.3473 25.6776C74.3776 25.7745 73.5049 26.0652 72.6321 26.8404C73.5049 24.7087 74.3776 23.2552 75.3473 22.3831C78.5474 19.2823 82.1354 22.3831 85.7234 20.1544C82.7173 28.0032 78.7414 25.387 75.3473 25.6776Z" fill="#E84710"/>
<path d="M72.826 14.0508C67.9774 9.88418 74.5715 7.55861 71.5654 1.93848C72.1472 2.90747 72.5351 3.87645 72.923 4.94234C73.5048 6.68652 73.6988 8.4307 73.6988 9.59349C73.6988 10.2718 73.6988 10.9501 73.6018 11.5315C73.5048 12.1129 73.4079 12.6943 73.2139 13.1787C73.02 13.4694 72.923 13.7601 72.826 14.0508Z" fill="#009640"/>
<path d="M66.9106 23.0616C60.2195 17.1508 67.9773 15.1159 64.9712 9.20508C68.1713 12.112 67.5894 14.8252 66.7167 17.1508C65.9409 18.9919 65.1651 21.0267 66.9106 23.0616C66.8137 22.9647 66.8137 22.9647 66.9106 23.0616Z" fill="#009640"/>
<path d="M72.439 2.71289C76.027 6.87954 76.8997 10.3679 73.3117 14.0501C73.4087 13.7594 73.5057 13.5656 73.6026 13.2749C73.7966 12.6935 73.8936 12.209 73.9905 11.5307C74.0875 10.9493 74.0875 10.271 74.0875 9.59271C74.0875 8.42992 73.8936 6.58885 73.3117 4.74777C73.0208 4.16637 72.8269 3.39118 72.439 2.71289Z" fill="#009640"/>
<path d="M67.1043 22.7727C67.1043 22.7727 67.0073 22.6758 67.0073 22.5789C65.5527 20.4471 66.5225 18.8967 67.0073 17.2494C67.9771 14.6332 68.7528 11.8231 64.583 8.43164C67.6861 9.59443 70.0135 11.3386 69.8195 14.5363C69.6256 17.0556 66.4255 19.3812 67.1043 22.7727Z" fill="#009640"/>
<path d="M72.4395 2.81057C72.7304 3.48886 73.0213 4.16715 73.2153 4.84544C73.7971 6.68652 73.991 8.5276 73.991 9.69039C73.991 10.3687 73.991 11.047 73.8941 11.6284C73.7971 12.2098 73.7001 12.7912 73.5062 13.3725C73.1183 14.6322 72.5364 15.6981 71.9546 16.764C71.2758 17.8299 70.5 18.702 69.7242 19.671C68.5606 21.1245 67.3969 22.5779 66.815 24.6128C66.4272 25.9694 66.3302 27.5198 66.6211 29.6516H66.2332C65.9423 27.5198 66.1362 25.8725 66.5241 24.5159C66.6211 24.0314 66.815 23.5469 67.009 23.1593C67.009 23.0624 66.912 23.0624 66.912 23.0624C65.1665 21.0276 66.0393 19.0896 66.815 17.1516C67.6878 14.9229 68.2696 12.2098 65.0695 9.20589C64.7786 8.7214 64.7786 8.7214 64.6816 8.5276C68.8515 12.016 68.0757 14.826 67.106 17.3454C66.6211 18.8958 65.6514 20.5431 67.106 22.6748L67.2029 22.7717C67.7848 21.4152 68.6575 20.3493 69.5303 19.2834C70.3061 18.3144 71.0819 17.3454 71.7607 16.3764C72.4395 15.4074 72.9243 14.3415 73.3122 13.1787C73.5062 12.6943 73.6031 12.1129 73.7001 11.5315C73.7971 10.9501 73.7971 10.3687 73.7971 9.59349C73.7971 8.4307 73.6032 6.68652 73.0213 4.94234C72.7304 4.07025 72.3425 3.19816 71.8576 2.32607C71.8576 2.22917 71.6637 2.03538 71.6637 1.93848C71.9546 2.13227 72.1486 2.32607 72.5365 2.61677C72.4395 2.71367 72.4395 2.81057 72.4395 2.81057Z" fill="#FFED00"/>
<path d="M25.9888 31.5879H25.0191C22.8857 35.6576 20.8492 39.8243 18.7158 43.991C18.7158 44.0879 20.8492 44.0879 21.819 42.1499C21.9159 41.9561 22.0129 41.7623 22.1099 41.5685C22.5947 40.8902 23.4675 40.9871 23.9524 40.9871H25.8918H29.5768C29.7707 41.3747 29.9647 41.7623 30.1586 42.1499C31.1284 44.0879 33.2618 44.0879 33.2618 43.991L26.9585 31.5879H25.9888ZM28.801 39.146H25.9888H23.9524C23.5645 39.146 23.3705 39.2429 23.1766 39.4367C23.2735 39.146 23.4675 38.9522 23.5645 38.7584C24.3402 37.1111 25.213 35.5607 25.9888 33.9135C25.9888 33.9135 25.9888 33.8166 26.0858 33.7197C26.9585 35.3669 27.7343 37.0142 28.6071 38.7584C28.6071 38.8553 28.704 39.0491 28.801 39.146Z" fill="white"/>
<path d="M36.2679 35.3673V35.2704C36.2679 34.0107 37.3346 33.6231 38.5953 33.6231H44.1227C45.9652 33.4293 46.2561 32.3634 46.1591 31.8789H42.6681H37.9165C34.6194 31.8789 33.1648 35.9487 35.5891 37.8866C36.6558 38.7587 37.7225 38.7587 38.7892 38.7587C40.0499 38.7587 42.6681 38.5649 43.6379 39.1463C44.1227 39.437 44.3167 39.8246 44.3167 40.5029C44.3167 41.7626 43.25 42.1502 41.9893 42.1502H36.4619C34.6194 42.344 34.3285 43.4099 34.4254 43.8944H37.9165H40.7287H42.7651C47.4198 43.8944 47.4198 36.9176 42.7651 36.9176H38.6922C37.7225 36.9176 36.9467 36.7238 36.5588 36.1425C36.5588 36.1425 36.5588 36.1425 36.5588 36.0456V35.9487V35.3673H36.2679Z" fill="white"/>
<path d="M72.2447 38.8558C74.0872 38.7589 75.6388 37.2086 75.6388 35.3675V35.2706C75.6388 33.3326 74.0872 31.7822 72.1478 31.7822H69.7235H63.8081V38.759V43.9915C63.8081 43.9915 65.8445 44.0884 65.8445 42.1504V39.631C65.8445 38.759 66.9112 38.8558 67.4931 38.8558H69.7235H69.8204C71.7599 41.2783 73.1175 43.4101 75.7358 45.6388C77.1904 47.383 79.9056 47.0923 79.9056 46.9954C76.6085 44.2822 74.6691 41.7628 72.2447 38.8558ZM69.7235 37.1117H66.5233C66.1355 37.1117 65.9415 37.2086 65.8445 37.4024V37.0148V33.7202H69.7235H71.275C72.5357 33.7202 73.6024 34.1078 73.6024 35.3675C73.6024 36.6272 72.5357 37.1117 71.275 37.1117H69.7235Z" fill="white"/>
<path d="M11.1519 31.5898H10.1821C8.04874 35.7565 6.01231 39.8263 3.87891 43.9929C3.87891 44.0898 5.91534 44.0898 6.98204 42.1518C7.07901 41.958 7.17598 41.7642 7.27296 41.5704C7.75782 40.8921 8.63058 40.989 9.11544 40.989H11.0549H14.7399C14.9338 41.3766 15.1278 41.7642 15.3217 42.1518C16.2914 44.0898 18.4248 44.0898 18.4248 43.9929L12.2186 31.5898H11.1519ZM13.9641 39.148H11.1519H9.11544C8.82452 39.148 8.53361 39.2449 8.33966 39.4387C8.43663 39.148 8.63058 38.9542 8.72755 38.7604C9.50333 37.1131 10.3761 35.5627 11.1519 33.9154C11.1519 33.9154 11.2488 33.8185 11.2488 33.7216C12.1216 35.3689 12.8974 37.0162 13.7701 38.7604C13.7701 38.8573 13.8671 39.0511 13.9641 39.148Z" fill="white"/>
<path d="M55.9539 33.6252V36.2415C55.9539 36.726 55.566 36.9198 55.1782 37.0167H49.8446C49.5537 37.0167 49.2628 37.1136 49.1658 37.3074V36.9198V35.757V33.6252C49.1658 31.6872 47.2264 31.6872 47.1294 31.7841V34.4973V37.0167V38.7609V41.2802V43.9934C47.1294 44.0903 49.1658 44.0903 49.1658 42.1523V39.6329C49.1658 38.7609 50.2325 38.8577 50.8144 38.8577H53.8205H55.2751C55.566 38.8577 55.857 38.7609 55.9539 38.4702V38.8577V40.0205V42.0554C55.9539 43.9934 57.8934 43.9934 57.9904 43.8965V41.1833V38.7609V37.0167V34.4973V31.7841C57.9904 31.6872 55.9539 31.6872 55.9539 33.6252Z" fill="white"/>
<path d="M93.3853 31.5879H92.4155C90.2821 35.6576 88.2457 39.8243 86.1123 43.991C86.1123 44.0879 88.1487 44.0879 89.2154 42.1499C89.3124 41.9561 89.4094 41.7623 89.5064 41.5685C89.9912 40.8902 90.864 40.9871 91.3488 40.9871H93.2883H96.9733C97.1672 41.3747 97.3612 41.7623 97.5551 42.1499C98.5248 44.0879 100.658 44.0879 100.658 43.991L94.355 31.5879H93.3853ZM96.1975 39.146H93.3853H91.3488C91.0579 39.146 90.767 39.2429 90.5731 39.4367C90.67 39.146 90.864 38.9522 90.9609 38.7584C91.8337 37.1111 92.6095 35.5607 93.3853 33.9135C93.3853 33.9135 93.3853 33.8166 93.4822 33.7197C94.355 35.3669 95.1308 37.0142 96.0035 38.7584C96.0035 38.8553 96.1005 39.0491 96.1975 39.146Z" fill="white"/>
<path d="M59.833 31.7822C59.833 34.1078 59.833 36.4334 59.833 38.8558V42.1504C59.833 44.0884 61.7725 44.0884 61.8694 43.9915V31.8791H59.833V31.7822Z" fill="white"/>
<path d="M87.0815 33.5266C85.6269 36.3367 84.2693 39.0498 82.9116 41.8599C80.6813 37.3057 80.0994 36.3367 78.7418 33.5266C77.7721 31.5886 75.6387 31.5886 75.6387 31.6855C77.7721 35.7553 79.8085 39.9219 81.8449 44.0886H83.8814L90.1846 31.5886C90.1846 31.5886 88.0512 31.4917 87.0815 33.5266Z" fill="white"/>
<path d="M124.61 31.7822H123.35H116.755V38.7589V43.9915H123.35H124.707C131.495 43.9915 131.301 31.976 124.61 31.7822ZM124.028 42.3442H123.35H119.083V33.6233H123.35H124.028C128.683 33.1388 129.071 42.6349 124.028 42.3442Z" fill="white"/>
<path d="M108.61 31.5879H107.641C105.507 35.6576 103.471 39.8243 101.337 43.991C101.337 44.0878 103.374 44.0878 104.441 42.1499C104.538 41.9561 104.634 41.7623 104.731 41.5685C105.216 40.8902 106.089 40.9871 106.574 40.9871H108.513H112.198C112.392 41.3747 112.586 41.7623 112.78 42.1499C113.75 44.0878 115.883 44.0878 115.883 43.991L109.58 31.5879H108.61ZM111.423 39.146H108.61H106.574C106.283 39.146 105.992 39.2429 105.798 39.4367C105.895 39.146 106.089 38.9522 106.186 38.7584C106.962 37.1111 107.835 35.5607 108.61 33.9135C108.61 33.9135 108.707 33.8166 108.707 33.7197C109.58 35.3669 110.356 37.0142 111.229 38.7584C111.326 38.8553 111.326 39.0491 111.423 39.146Z" fill="white"/>
<path d="M140.32 37.8877H134.211V43.9923H140.32V37.8877Z" fill="white"/>
<path d="M140.32 37.8877H134.211V43.9923H140.32V37.8877Z" fill="white"/>
<path d="M134.405 43.7022H140.029V38.082H134.405V43.7022ZM139.544 43.2177H134.987V38.6634H139.544V43.2177Z" fill="#009C42"/>
<path d="M137.217 42.345C136.441 42.345 135.86 41.7636 135.86 40.9884C135.86 40.2132 136.441 39.6318 137.217 39.6318C137.993 39.6318 138.575 40.3101 138.575 40.9884C138.672 41.6667 137.993 42.345 137.217 42.345Z" fill="#009C42"/>
</svg>
