<svg width="367" height="106" viewBox="0 0 367 106" fill="none" xmlns="http://www.w3.org/2000/svg">
<rect y="30" width="367" height="76" fill="#8AC63E"/>
<path d="M42.1534 90.72C38.8334 90.72 35.7534 90.18 32.9134 89.1C30.1134 88.02 27.6734 86.5 25.5934 84.54C23.5534 82.58 21.9534 80.28 20.7934 77.64C19.6734 75 19.1134 72.12 19.1134 69C19.1134 65.88 19.6734 63 20.7934 60.36C21.9534 57.72 23.5734 55.42 25.6534 53.46C27.7334 51.5 30.1734 49.98 32.9734 48.9C35.7734 47.82 38.8134 47.28 42.0934 47.28C45.4134 47.28 48.4534 47.82 51.2134 48.9C54.0134 49.98 56.4334 51.5 58.4734 53.46C60.5534 55.42 62.1734 57.72 63.3334 60.36C64.4934 62.96 65.0734 65.84 65.0734 69C65.0734 72.12 64.4934 75.02 63.3334 77.7C62.1734 80.34 60.5534 82.64 58.4734 84.6C56.4334 86.52 54.0134 88.02 51.2134 89.1C48.4534 90.18 45.4334 90.72 42.1534 90.72ZM42.0934 82.44C43.9734 82.44 45.6934 82.12 47.2534 81.48C48.8534 80.84 50.2534 79.92 51.4534 78.72C52.6534 77.52 53.5734 76.1 54.2134 74.46C54.8934 72.82 55.2334 71 55.2334 69C55.2334 67 54.8934 65.18 54.2134 63.54C53.5734 61.9 52.6534 60.48 51.4534 59.28C50.2934 58.08 48.9134 57.16 47.3134 56.52C45.7134 55.88 43.9734 55.56 42.0934 55.56C40.2134 55.56 38.4734 55.88 36.8734 56.52C35.3134 57.16 33.9334 58.08 32.7334 59.28C31.5334 60.48 30.5934 61.9 29.9134 63.54C29.2734 65.18 28.9534 67 28.9534 69C28.9534 70.96 29.2734 72.78 29.9134 74.46C30.5934 76.1 31.5134 77.52 32.6734 78.72C33.8734 79.92 35.2734 80.84 36.8734 81.48C38.4734 82.12 40.2134 82.44 42.0934 82.44ZM72.3784 90V48H90.5584C94.3184 48 97.5584 48.62 100.278 49.86C102.998 51.06 105.098 52.8 106.578 55.08C108.058 57.36 108.798 60.08 108.798 63.24C108.798 66.36 108.058 69.06 106.578 71.34C105.098 73.58 102.998 75.3 100.278 76.5C97.5584 77.7 94.3184 78.3 90.5584 78.3H77.7784L82.0984 74.04V90H72.3784ZM99.0784 90L88.5784 74.76H98.9584L109.578 90H99.0784ZM82.0984 75.12L77.7784 70.56H90.0184C93.0184 70.56 95.2584 69.92 96.7384 68.64C98.2184 67.32 98.9584 65.52 98.9584 63.24C98.9584 60.92 98.2184 59.12 96.7384 57.84C95.2584 56.56 93.0184 55.92 90.0184 55.92H77.7784L82.0984 51.3V75.12ZM136.78 90.72C133.46 90.72 130.4 90.2 127.6 89.16C124.84 88.08 122.42 86.56 120.34 84.6C118.3 82.64 116.7 80.34 115.54 77.7C114.42 75.06 113.86 72.16 113.86 69C113.86 65.84 114.42 62.94 115.54 60.3C116.7 57.66 118.32 55.36 120.4 53.4C122.48 51.44 124.92 49.94 127.72 48.9C130.52 47.82 133.6 47.28 136.96 47.28C140.68 47.28 144.02 47.9 146.98 49.14C149.98 50.38 152.5 52.18 154.54 54.54L148.3 60.3C146.78 58.7 145.12 57.52 143.32 56.76C141.52 55.96 139.56 55.56 137.44 55.56C135.4 55.56 133.54 55.88 131.86 56.52C130.18 57.16 128.72 58.08 127.48 59.28C126.28 60.48 125.34 61.9 124.66 63.54C124.02 65.18 123.7 67 123.7 69C123.7 70.96 124.02 72.76 124.66 74.4C125.34 76.04 126.28 77.48 127.48 78.72C128.72 79.92 130.16 80.84 131.8 81.48C133.48 82.12 135.32 82.44 137.32 82.44C139.24 82.44 141.1 82.14 142.9 81.54C144.74 80.9 146.52 79.84 148.24 78.36L153.76 85.38C151.48 87.1 148.82 88.42 145.78 89.34C142.78 90.26 139.78 90.72 136.78 90.72ZM144.88 84.12V68.34H153.76V85.38L144.88 84.12ZM157.269 90L175.989 48H185.589L204.369 90H194.169L178.809 52.92H182.649L167.229 90H157.269ZM166.629 81L169.209 73.62H190.809L193.449 81H166.629ZM208.726 90V48H216.766L241.546 78.24H237.646V48H247.246V90H239.266L214.426 59.76H218.326V90H208.726ZM257.183 90V48H266.903V90H257.183ZM296.971 90.72C293.731 90.72 290.711 90.2 287.911 89.16C285.151 88.08 282.751 86.56 280.711 84.6C278.671 82.64 277.071 80.34 275.911 77.7C274.791 75.06 274.231 72.16 274.231 69C274.231 65.84 274.791 62.94 275.911 60.3C277.071 57.66 278.671 55.36 280.711 53.4C282.791 51.44 285.211 49.94 287.971 48.9C290.731 47.82 293.751 47.28 297.031 47.28C300.671 47.28 303.951 47.92 306.871 49.2C309.831 50.44 312.311 52.28 314.311 54.72L308.071 60.48C306.631 58.84 305.031 57.62 303.271 56.82C301.511 55.98 299.591 55.56 297.511 55.56C295.551 55.56 293.751 55.88 292.111 56.52C290.471 57.16 289.051 58.08 287.851 59.28C286.651 60.48 285.711 61.9 285.031 63.54C284.391 65.18 284.071 67 284.071 69C284.071 71 284.391 72.82 285.031 74.46C285.711 76.1 286.651 77.52 287.851 78.72C289.051 79.92 290.471 80.84 292.111 81.48C293.751 82.12 295.551 82.44 297.511 82.44C299.591 82.44 301.511 82.04 303.271 81.24C305.031 80.4 306.631 79.14 308.071 77.46L314.311 83.22C312.311 85.66 309.831 87.52 306.871 88.8C303.951 90.08 300.651 90.72 296.971 90.72ZM328.915 75.42C328.915 74.02 329.135 72.78 329.575 71.7C330.055 70.62 330.635 69.66 331.315 68.82C332.035 67.98 332.795 67.2 333.595 66.48C334.395 65.76 335.135 65.08 335.815 64.44C336.535 63.76 337.115 63.06 337.555 62.34C338.035 61.62 338.275 60.82 338.275 59.94C338.275 58.5 337.675 57.34 336.475 56.46C335.315 55.58 333.755 55.14 331.795 55.14C329.915 55.14 328.235 55.54 326.755 56.34C325.275 57.1 324.055 58.18 323.095 59.58L315.835 55.32C317.435 52.88 319.655 50.94 322.495 49.5C325.335 48.02 328.775 47.28 332.815 47.28C335.815 47.28 338.455 47.72 340.735 48.6C343.015 49.44 344.795 50.68 346.075 52.32C347.395 53.96 348.055 55.98 348.055 58.38C348.055 59.94 347.815 61.32 347.335 62.52C346.855 63.72 346.235 64.76 345.475 65.64C344.715 66.52 343.895 67.34 343.015 68.1C342.175 68.86 341.375 69.6 340.615 70.32C339.855 71.04 339.215 71.8 338.695 72.6C338.215 73.4 337.975 74.34 337.975 75.42H328.915ZM333.475 90.48C331.795 90.48 330.415 89.94 329.335 88.86C328.255 87.78 327.715 86.5 327.715 85.02C327.715 83.5 328.255 82.24 329.335 81.24C330.415 80.2 331.795 79.68 333.475 79.68C335.195 79.68 336.575 80.2 337.615 81.24C338.695 82.24 339.235 83.5 339.235 85.02C339.235 86.5 338.695 87.78 337.615 88.86C336.575 89.94 335.195 90.48 333.475 90.48Z" fill="#5E1225"/>
<g clip-path="url(#clip0_3736_5465)">
<path d="M219.036 1.51141C219.036 1.51141 190.386 -3.69769 179.968 17.1387C169.941 37.1677 187.495 42.8977 199.502 35.4487C216.432 24.9523 219.036 11.9296 219.036 1.51141Z" fill="#04833E"/>
<path d="M188.876 39.5374C185.229 39.5374 181.869 38.4696 179.499 36.3339C176.869 33.9377 173.326 28.2077 179.083 16.7216C189.709 -4.53152 218.906 0.521303 219.193 0.573394L220 0.729667V1.53708C220 11.1479 217.916 25.1864 199.997 36.3078C196.507 38.4696 192.548 39.5374 188.876 39.5374ZM211.379 1.95381C202.341 1.95381 187.547 4.16767 180.854 17.5811C177.025 25.2385 177.025 31.3852 180.854 34.9013C184.943 38.6259 192.756 38.5217 199.007 34.6409C215.442 24.4571 217.942 12.1376 218.073 2.37053C216.848 2.21426 214.452 1.95381 211.379 1.95381Z" fill="#5E1225"/>
<path d="M150.016 10.1844C150.016 10.1844 150.849 37.2457 175.827 29.7967C175.827 29.7967 174.759 8.43936 150.016 10.1844Z" fill="#85C93A"/>
<path d="M167.779 32.0885C163.924 32.0885 160.564 31.0728 157.777 29.0412C149.521 23.1029 149.052 10.7573 149.026 10.2103L149 9.2727L149.938 9.19456C158.142 8.62156 164.705 10.4447 169.446 14.6641C176.27 20.7067 176.764 29.3798 176.791 29.7445L176.817 30.4998L176.087 30.7081C173.118 31.6458 170.331 32.0885 167.779 32.0885ZM151.058 11.1219C151.344 14.039 152.698 22.9987 158.897 27.4785C162.882 30.3435 168.222 30.8905 174.759 29.1194C174.472 26.9315 173.222 20.6285 168.143 16.1227C163.976 12.4502 158.272 10.7573 151.058 11.1219Z" fill="#5E1225"/>
<path d="M202.888 11.3818C197.653 13.7259 193.199 17.3723 189.423 21.5656C187.547 23.6753 185.828 25.9152 184.24 28.2333C182.677 30.5513 181.192 32.9996 180.02 35.4479L177.702 34.2498C179.213 31.6713 180.88 29.3532 182.677 27.0612C184.474 24.7953 186.427 22.6595 188.511 20.628C192.652 16.6691 197.497 13.3092 202.888 11.3818Z" fill="#5E1225"/>
<path d="M159.548 15.8359C162.83 17.3726 166.034 19.1437 169.029 21.2534C172.024 23.3891 174.941 25.7853 176.999 29.2233L174.655 30.3693C173.326 27.348 170.852 24.6393 168.221 22.2692C165.539 19.899 162.622 17.7633 159.548 15.8359Z" fill="#5E1225"/>
</g>
<defs>
<clipPath id="clip0_3736_5465">
<rect width="71" height="39.5371" fill="white" transform="translate(149)"/>
</clipPath>
</defs>
</svg>
