<svg width="395" height="108" viewBox="0 0 395 108" fill="none" xmlns="http://www.w3.org/2000/svg">
<rect width="395" height="73" transform="translate(0 34.8105)" fill="#8AC63E"/>
<path d="M15.1558 92.8105V50.8105H23.1958L47.9758 81.0505H44.0758V50.8105H53.6758V92.8105H45.6958L20.8558 62.5705H24.7558V92.8105H15.1558ZM58.0928 92.8105L76.8128 50.8105H86.4128L105.193 92.8105H94.9928L79.6328 55.7305H83.4728L68.0528 92.8105H58.0928ZM67.4528 83.8105L70.0328 76.4305H91.6328L94.2728 83.8105H67.4528ZM116.141 92.8105V58.7305H102.701V50.8105H139.301V58.7305H125.861V92.8105H116.141ZM162.488 93.5305C156.528 93.5305 151.868 91.8705 148.508 88.5505C145.148 85.2305 143.468 80.4905 143.468 74.3305V50.8105H153.188V73.9705C153.188 77.9705 154.008 80.8505 155.648 82.6105C157.288 84.3705 159.588 85.2505 162.548 85.2505C165.508 85.2505 167.808 84.3705 169.448 82.6105C171.088 80.8505 171.908 77.9705 171.908 73.9705V50.8105H181.508V74.3305C181.508 80.4905 179.828 85.2305 176.468 88.5505C173.108 91.8705 168.448 93.5305 162.488 93.5305ZM191.113 92.8105V50.8105H209.293C213.053 50.8105 216.293 51.4305 219.013 52.6705C221.733 53.8705 223.833 55.6105 225.313 57.8905C226.793 60.1705 227.533 62.8905 227.533 66.0505C227.533 69.1705 226.793 71.8705 225.313 74.1505C223.833 76.3905 221.733 78.1105 219.013 79.3105C216.293 80.5105 213.053 81.1105 209.293 81.1105H196.513L200.833 76.8505V92.8105H191.113ZM217.813 92.8105L207.313 77.5705H217.693L228.313 92.8105H217.813ZM200.833 77.9305L196.513 73.3705H208.753C211.753 73.3705 213.993 72.7305 215.473 71.4505C216.953 70.1305 217.693 68.3305 217.693 66.0505C217.693 63.7305 216.953 61.9305 215.473 60.6505C213.993 59.3705 211.753 58.7305 208.753 58.7305H196.513L200.833 54.1105V77.9305ZM229.714 92.8105L248.434 50.8105H258.034L276.814 92.8105H266.614L251.254 55.7305H255.094L239.674 92.8105H229.714ZM239.074 83.8105L241.654 76.4305H263.254L265.894 83.8105H239.074ZM281.171 92.8105V50.8105H290.891V84.8905H311.951V92.8105H281.171ZM317.382 92.8105V50.8105H327.102V84.8905H348.162V92.8105H317.382ZM359.697 92.8105V75.6505L361.917 81.5305L343.437 50.8105H353.757L367.917 74.3905H361.977L376.197 50.8105H385.737L367.257 81.5305L369.417 75.6505V92.8105H359.697Z" fill="#5E1225"/>
<g clip-path="url(#clip0_1227_1346)">
<path d="M232.036 1.69632C232.036 1.69632 203.386 -4.15306 192.968 19.2445C182.941 41.7353 200.495 48.1696 212.502 39.805C229.432 28.0185 232.036 13.3951 232.036 1.69632Z" fill="#04833E"/>
<path d="M201.876 44.3966C198.229 44.3966 194.869 43.1975 192.499 40.7993C189.869 38.1086 186.326 31.6742 192.083 18.7764C202.709 -5.0891 231.906 0.584796 232.193 0.64329L233 0.818771V1.72543C233 12.5175 230.916 28.2816 212.997 40.77C209.507 43.1975 205.548 44.3966 201.876 44.3966ZM224.379 2.19338C215.341 2.19338 200.547 4.67936 193.854 19.7415C190.025 28.3401 190.025 35.2424 193.854 39.1907C197.943 43.373 205.756 43.256 212.007 38.8982C228.442 27.4627 230.942 13.6289 231.073 2.66133C229.848 2.48584 227.452 2.19338 224.379 2.19338Z" fill="#5E1225"/>
<path d="M163.016 11.4356C163.016 11.4356 163.849 41.8232 188.827 33.4585C188.827 33.4585 187.759 9.47609 163.016 11.4356Z" fill="#85C93A"/>
<path d="M180.779 36.0322C176.924 36.0322 173.564 34.8915 170.777 32.6103C162.521 25.942 162.052 12.079 162.026 11.4648L162 10.4119L162.938 10.3241C171.142 9.68071 177.705 11.728 182.446 16.466C189.27 23.2513 189.764 32.9905 189.791 33.3999L189.817 34.2481L189.087 34.4821C186.118 35.535 183.331 36.0322 180.779 36.0322ZM164.058 12.4884C164.344 15.7641 165.698 25.825 171.897 30.8555C175.882 34.0726 181.222 34.6868 187.759 32.698C187.472 30.2413 186.222 23.1635 181.143 18.1038C176.976 13.98 171.272 12.079 164.058 12.4884Z" fill="#5E1225"/>
<path d="M215.888 12.7808C210.653 15.413 206.199 19.5075 202.423 24.2163C200.547 26.5853 198.828 29.1005 197.24 31.7035C195.677 34.3065 194.192 37.0557 193.02 39.8049L190.702 38.4595C192.213 35.5641 193.88 32.9611 195.677 30.3874C197.474 27.8429 199.427 25.4447 201.511 23.1634C205.652 18.7179 210.497 14.945 215.888 12.7808Z" fill="#5E1225"/>
<path d="M172.548 17.782C175.83 19.5075 179.034 21.4963 182.029 23.8653C185.024 26.2636 187.941 28.9543 189.999 32.8149L187.655 34.1018C186.326 30.7091 183.852 27.6674 181.222 25.006C178.539 22.3445 175.622 19.9463 172.548 17.782Z" fill="#5E1225"/>
</g>
<defs>
<clipPath id="clip0_1227_1346">
<rect width="71" height="44.3968" fill="white" transform="translate(162)"/>
</clipPath>
</defs>
</svg>
