<svg width="455" height="104" viewBox="0 0 455 104" fill="none" xmlns="http://www.w3.org/2000/svg">
<rect width="455" height="73" transform="translate(0 31)" fill="#8AC63E"/>
<path d="M35.1093 89.72C31.8693 89.72 28.8493 89.2 26.0493 88.16C23.2893 87.08 20.8893 85.56 18.8493 83.6C16.8093 81.64 15.2093 79.34 14.0493 76.7C12.9293 74.06 12.3693 71.16 12.3693 68C12.3693 64.84 12.9293 61.94 14.0493 59.3C15.2093 56.66 16.8093 54.36 18.8493 52.4C20.9293 50.44 23.3493 48.94 26.1093 47.9C28.8693 46.82 31.8893 46.28 35.1693 46.28C38.8093 46.28 42.0893 46.92 45.0093 48.2C47.9693 49.44 50.4493 51.28 52.4493 53.72L46.2093 59.48C44.7693 57.84 43.1693 56.62 41.4093 55.82C39.6493 54.98 37.7293 54.56 35.6493 54.56C33.6893 54.56 31.8893 54.88 30.2493 55.52C28.6093 56.16 27.1893 57.08 25.9893 58.28C24.7893 59.48 23.8493 60.9 23.1693 62.54C22.5293 64.18 22.2093 66 22.2093 68C22.2093 70 22.5293 71.82 23.1693 73.46C23.8493 75.1 24.7893 76.52 25.9893 77.72C27.1893 78.92 28.6093 79.84 30.2493 80.48C31.8893 81.12 33.6893 81.44 35.6493 81.44C37.7293 81.44 39.6493 81.04 41.4093 80.24C43.1693 79.4 44.7693 78.14 46.2093 76.46L52.4493 82.22C50.4493 84.66 47.9693 86.52 45.0093 87.8C42.0893 89.08 38.7893 89.72 35.1093 89.72ZM67.9532 63.92H88.1732V71.48H67.9532V63.92ZM68.6732 81.2H91.5332V89H59.0132V47H90.7532V54.8H68.6732V81.2ZM99.2671 89V47H117.447C121.207 47 124.447 47.62 127.167 48.86C129.887 50.06 131.987 51.8 133.467 54.08C134.947 56.36 135.687 59.08 135.687 62.24C135.687 65.36 134.947 68.06 133.467 70.34C131.987 72.58 129.887 74.3 127.167 75.5C124.447 76.7 121.207 77.3 117.447 77.3H104.667L108.987 73.04V89H99.2671ZM125.967 89L115.467 73.76H125.847L136.467 89H125.967ZM108.987 74.12L104.667 69.56H116.907C119.907 69.56 122.147 68.92 123.627 67.64C125.107 66.32 125.847 64.52 125.847 62.24C125.847 59.92 125.107 58.12 123.627 56.84C122.147 55.56 119.907 54.92 116.907 54.92H104.667L108.987 50.3V74.12ZM151.502 89V54.92H138.062V47H174.662V54.92H161.222V89H151.502ZM179.892 89V47H189.612V89H179.892ZM208.58 65.9H228.74V73.7H208.58V65.9ZM209.3 89H199.58V47H231.32V54.8H209.3V89ZM237.9 89V47H247.62V89H237.9ZM266.527 63.92H286.747V71.48H266.527V63.92ZM267.247 81.2H290.107V89H257.587V47H289.327V54.8H267.247V81.2ZM297.841 89V47H316.921C321.481 47 325.501 47.88 328.981 49.64C332.461 51.36 335.181 53.78 337.141 56.9C339.101 60.02 340.081 63.72 340.081 68C340.081 72.24 339.101 75.94 337.141 79.1C335.181 82.22 332.461 84.66 328.981 86.42C325.501 88.14 321.481 89 316.921 89H297.841ZM307.561 81.02H316.441C319.241 81.02 321.661 80.5 323.701 79.46C325.781 78.38 327.381 76.86 328.501 74.9C329.661 72.94 330.241 70.64 330.241 68C330.241 65.32 329.661 63.02 328.501 61.1C327.381 59.14 325.781 57.64 323.701 56.6C321.661 55.52 319.241 54.98 316.441 54.98H307.561V81.02ZM364.404 89V47H384.924C390.204 47 394.164 48 396.804 50C399.484 52 400.824 54.64 400.824 57.92C400.824 60.12 400.284 62.04 399.204 63.68C398.124 65.28 396.644 66.52 394.764 67.4C392.884 68.28 390.724 68.72 388.284 68.72L389.424 66.26C392.064 66.26 394.404 66.7 396.444 67.58C398.484 68.42 400.064 69.68 401.184 71.36C402.344 73.04 402.924 75.1 402.924 77.54C402.924 81.14 401.504 83.96 398.664 86C395.824 88 391.644 89 386.124 89H364.404ZM374.064 81.68H385.404C387.924 81.68 389.824 81.28 391.104 80.48C392.424 79.64 393.084 78.32 393.084 76.52C393.084 74.76 392.424 73.46 391.104 72.62C389.824 71.74 387.924 71.3 385.404 71.3H373.344V64.22H383.724C386.084 64.22 387.884 63.82 389.124 63.02C390.404 62.18 391.044 60.92 391.044 59.24C391.044 57.6 390.404 56.38 389.124 55.58C387.884 54.74 386.084 54.32 383.724 54.32H374.064V81.68ZM419.844 89V71.84L422.064 77.72L403.584 47H413.904L428.064 70.58H422.124L436.344 47H445.884L427.404 77.72L429.564 71.84V89H419.844Z" fill="#5E1225"/>
<g clip-path="url(#clip0_3736_5346)">
<path d="M262.036 1.51141C262.036 1.51141 233.386 -3.69769 222.968 17.1387C212.941 37.1677 230.495 42.8977 242.502 35.4487C259.432 24.9523 262.036 11.9296 262.036 1.51141Z" fill="#04833E"/>
<path d="M231.876 39.5374C228.229 39.5374 224.869 38.4696 222.499 36.3339C219.869 33.9377 216.326 28.2077 222.083 16.7216C232.709 -4.53152 261.906 0.521303 262.193 0.573394L263 0.729667V1.53708C263 11.1479 260.916 25.1864 242.997 36.3078C239.507 38.4696 235.548 39.5374 231.876 39.5374ZM254.379 1.95381C245.341 1.95381 230.547 4.16767 223.854 17.5811C220.025 25.2385 220.025 31.3852 223.854 34.9013C227.943 38.6259 235.756 38.5217 242.007 34.6409C258.442 24.4571 260.942 12.1376 261.073 2.37053C259.848 2.21426 257.452 1.95381 254.379 1.95381Z" fill="#5E1225"/>
<path d="M193.016 10.1844C193.016 10.1844 193.849 37.2457 218.827 29.7967C218.827 29.7967 217.759 8.43936 193.016 10.1844Z" fill="#85C93A"/>
<path d="M210.779 32.0885C206.924 32.0885 203.564 31.0728 200.777 29.0412C192.521 23.1029 192.052 10.7573 192.026 10.2103L192 9.2727L192.938 9.19456C201.142 8.62156 207.705 10.4447 212.446 14.6641C219.27 20.7067 219.764 29.3798 219.791 29.7445L219.817 30.4998L219.087 30.7081C216.118 31.6458 213.331 32.0885 210.779 32.0885ZM194.058 11.1219C194.344 14.039 195.698 22.9987 201.897 27.4785C205.882 30.3435 211.222 30.8905 217.759 29.1194C217.472 26.9315 216.222 20.6285 211.143 16.1227C206.976 12.4502 201.272 10.7573 194.058 11.1219Z" fill="#5E1225"/>
<path d="M245.888 11.3818C240.653 13.7259 236.199 17.3723 232.423 21.5656C230.547 23.6753 228.828 25.9152 227.24 28.2333C225.677 30.5513 224.192 32.9996 223.02 35.4479L220.702 34.2498C222.213 31.6713 223.88 29.3532 225.677 27.0612C227.474 24.7953 229.427 22.6595 231.511 20.628C235.652 16.6691 240.497 13.3092 245.888 11.3818Z" fill="#5E1225"/>
<path d="M202.548 15.8359C205.83 17.3726 209.034 19.1437 212.029 21.2534C215.024 23.3891 217.941 25.7853 219.999 29.2233L217.655 30.3693C216.326 27.348 213.852 24.6393 211.221 22.2692C208.539 19.899 205.622 17.7633 202.548 15.8359Z" fill="#5E1225"/>
</g>
<defs>
<clipPath id="clip0_3736_5346">
<rect width="71" height="39.5371" fill="white" transform="translate(192)"/>
</clipPath>
</defs>
</svg>
